<?xml version="1.0" encoding="UTF-8"?>
<svg xmlns="http://www.w3.org/2000/svg" xmlns:xlink="http://www.w3.org/1999/xlink" width="100px" height="100px" viewBox="0 0 100 100" version="1.1">
<g id="surface1">
<path style=" stroke:none;fill-rule:nonzero;fill:rgb(52.156863%,54.509804%,69.803922%);fill-opacity:1;" d="M 49.085938 80.898438 C 26.746094 94.453125 -2.351562 87.332031 -15.90625 64.992188 C -29.460938 42.652344 -22.339844 13.554688 0 0 L 0.0351562 0.558594 L 0.0351562 8.234375 C -2.058594 9.292969 -4.605469 8.683594 -5.996094 6.796875 C -7.386719 4.90625 -7.207031 2.292969 -5.574219 0.609375 C -3.945312 -1.074219 -1.335938 -1.332031 0.59375 0 L 0.566406 -0.558594 L 0.566406 85.699219 C 0.566406 83.050781 2.714844 80.898438 5.363281 80.898438 Z M 26.585938 71.585938 C 28.320312 73.316406 28.449219 76.035156 26.984375 77.914062 L 26.585938 78.363281 L 21.160156 83.800781 C -1.980469 85.550781 -22.15625 68.207031 -23.90625 45.066406 C -25.65625 21.925781 -8.316406 1.75 14.824219 0 L 15.226562 -0.449219 L 20.65625 -5.878906 C 20.054688 -8.132812 17.914062 -9.628906 15.59375 -9.417969 C 13.269531 -9.210938 11.433594 -7.359375 11.242188 -5.03125 C 11.054688 -2.707031 12.566406 -0.582031 14.824219 0 Z M 78.363281 71.585938 L 83.796875 77.015625 C 62.527344 75.140625 46.804688 56.382812 48.679688 35.113281 C 50.554688 13.847656 69.3125 -1.875 90.578125 0 L 85.15625 -5.429688 C 85.507812 -7.875 87.660156 -9.65625 90.132812 -9.535156 C 92.601562 -9.417969 94.574219 -7.441406 94.691406 -4.972656 C 94.808594 -2.503906 93.027344 -0.351562 90.578125 0 Z M 49.085938 24.5 C 49.085938 10.902344 60.109375 -0.121094 73.703125 -0.121094 C 87.300781 -0.121094 98.324219 10.902344 98.324219 24.5 C 98.324219 38.097656 87.300781 49.121094 73.703125 49.121094 C 66.941406 62.675781 50.46875 68.179688 36.914062 61.414062 C 23.359375 54.648438 17.855469 38.175781 24.621094 24.621094 Z M 93.375 44.289062 C 87.941406 63.277344 68.148438 74.265625 49.164062 68.832031 C 30.175781 63.402344 19.1875 43.605469 24.621094 24.621094 L 85.699219 24.621094 C 85.699219 41.488281 72.027344 55.160156 55.160156 55.160156 C 38.292969 55.160156 24.621094 41.488281 24.621094 24.621094 L 32.296875 24.621094 Z M 12.476562 44.289062 C 7.042969 40.9375 5.359375 33.8125 8.710938 28.382812 C 12.066406 22.949219 19.1875 21.265625 24.621094 24.621094 L 24.058594 24.65625 L 4.800781 24.65625 C 4.949219 26.460938 4.066406 28.199219 2.519531 29.144531 C 0.972656 30.085938 -0.976562 30.082031 -2.515625 29.125 C -4.054688 28.167969 -4.925781 26.425781 -4.765625 24.621094 L -4.203125 24.589844 L 3.464844 24.589844 Z M 83.796875 14.375 C 86.625 38.832031 69.09375 60.949219 44.636719 63.777344 C 20.183594 66.605469 -1.9375 49.074219 -4.765625 24.621094 L -10.195312 30.050781 C -10.714844 32.214844 -12.660156 33.738281 -14.886719 33.726562 C -17.113281 33.714844 -19.039062 32.175781 -19.539062 30.003906 C -20.039062 27.832031 -18.980469 25.601562 -16.980469 24.621094 L -11.554688 19.191406 C -11.90625 16.738281 -14.0625 14.957031 -16.535156 15.074219 C -19.007812 15.191406 -20.988281 17.171875 -21.101562 19.644531 C -21.21875 22.117188 -19.433594 24.273438 -16.980469 24.621094 Z M 20.710938 13.976562 L 21.160156 14.375 L 26.589844 19.804688 C 27.917969 31.835938 19.242188 42.667969 7.210938 43.996094 C -4.820312 45.328125 -15.648438 36.652344 -16.980469 24.621094 L -17.429688 24.21875 L -22.859375 18.789062 C -22.277344 16.53125 -20.152344 15.019531 -17.828125 15.207031 C -15.503906 15.398438 -13.652344 17.234375 -13.441406 19.558594 C -13.230469 21.882812 -14.726562 24.019531 -16.980469 24.621094 Z M 49.085938 0 C 51.734375 0 53.886719 2.148438 53.886719 4.800781 L 53.886719 12.476562 C 57.238281 12.476562 59.957031 15.195312 59.957031 18.546875 C 59.957031 21.902344 57.238281 24.621094 53.886719 24.621094 L 53.886719 4.800781 C 53.886719 2.148438 56.035156 0 58.683594 0 Z M 49.085938 0 "/>
</g>
</svg>
